<?xml version="1.0" standalone="no"?>
<!DOCTYPE svg PUBLIC "-//W3C//DTD SVG 20010904//EN"
 "http://www.w3.org/TR/2001/REC-SVG-20010904/DTD/svg10.dtd">
<svg version="1.0" xmlns="http://www.w3.org/2000/svg"
 width="450.000000pt" height="240.000000pt" viewBox="0 0 450.000000 240.000000"
 preserveAspectRatio="xMidYMid meet">
<metadata>
Created by potrace 1.10, written by Peter Selinger 2001-2011
</metadata>
<g transform="translate(0.000000,240.000000) scale(0.050000,-0.050000)"
fill="#6aa84f" stroke="none">
<path d="M4071 4755 c-51 -221 -51 -272 -4 -332 14 -18 13 -31 -5 -42 -27 -17
-43 -158 -19 -173 7 -4 9 -26 3 -48 -16 -59 12 -48 38 15 52 127 75 625 29
625 -18 0 -37 -20 -42 -45z"/>
<path d="M5733 4770 c-17 -17 -38 -29 -47 -28 -9 2 -20 1 -26 -2 -29 -14 -120
-9 -120 6 0 10 -25 13 -55 6 -30 -7 -73 -16 -95 -20 -22 -4 -78 -22 -125 -39
-47 -17 -101 -26 -119 -19 -24 9 -30 5 -21 -17 8 -21 -1 -29 -32 -27 -52 4
-209 -72 -290 -141 -32 -27 -69 -49 -81 -49 -12 0 -22 -9 -22 -20 0 -11 -12
-20 -28 -20 -15 0 -40 -19 -56 -43 -15 -24 -50 -45 -77 -47 -27 -2 -49 -16
-50 -32 -1 -54 -29 -74 -89 -65 -35 5 -60 1 -60 -12 0 -11 13 -21 29 -21 59 0
50 -39 -18 -71 -38 -18 -102 -64 -143 -102 -40 -38 -87 -66 -105 -63 -18 3
-44 -2 -58 -11 -14 -8 -25 -9 -25 0 0 8 -11 -1 -25 -19 -14 -19 -43 -38 -65
-42 -22 -4 -89 -23 -150 -41 -60 -18 -159 -48 -220 -66 -60 -18 -129 -49 -151
-69 -23 -20 -60 -36 -82 -36 -47 0 -107 -59 -107 -105 0 -18 -10 -39 -23 -47
-14 -8 -18 -5 -10 8 20 32 -29 54 -49 22 -15 -24 -21 -23 -37 2 -25 38 -79
-82 -66 -148 9 -46 145 -77 145 -33 0 47 38 16 60 -48 24 -75 61 -90 241 -101
65 -4 105 3 121 22 12 15 45 28 72 28 27 0 43 9 36 20 -7 11 4 21 24 21 105 4
174 23 196 53 27 36 90 -1 90 -53 0 -40 37 -21 44 22 3 24 22 46 41 48 48 7
61 -22 26 -57 -25 -25 -25 -32 -2 -41 32 -12 57 65 39 120 -10 27 -4 25 21 -9
25 -33 35 -93 39 -228 4 -159 10 -186 48 -217 24 -20 44 -45 44 -57 0 -12 12
-22 27 -22 36 0 93 -65 93 -107 0 -36 33 -45 44 -12 4 14 52 3 126 -27 137
-56 335 -98 316 -67 -8 12 1 14 22 7 19 -8 29 -6 24 3 -12 19 56 58 118 67 22
4 36 12 30 19 -16 21 65 99 92 89 27 -10 75 35 56 53 -22 22 32 94 62 82 18
-7 30 0 30 17 0 62 100 90 138 39 22 -30 45 -41 68 -32 49 19 102 -28 72 -64
-18 -21 -15 -27 11 -27 18 0 28 -9 21 -20 -7 -11 1 -20 17 -20 16 0 34 -13 40
-29 38 -98 343 -204 553 -192 17 1 46 2 65 2 21 1 30 11 22 24 -9 14 -2 17 18
10 18 -7 43 0 56 16 13 16 40 29 61 29 20 0 46 18 58 40 12 22 31 40 42 40 26
0 196 182 197 211 1 21 72 89 93 89 7 0 6 -52 -1 -115 -12 -112 -20 -585 -11
-685 11 -126 36 102 49 440 15 386 20 440 54 525 16 41 16 78 -2 140 -17 63
-20 400 -3 428 1 1 18 1 37 0 22 -2 34 10 32 32 -3 38 120 53 142 17 6 -10 -7
-14 -29 -8 -47 12 -55 -24 -9 -42 19 -7 28 -26 21 -47 -5 -19 -16 -219 -23
-445 -7 -225 -15 -455 -18 -510 -2 -55 2 -122 10 -150 12 -38 16 -26 15 50 0
113 19 545 40 890 l14 230 110 -1 c61 0 137 -4 170 -9 33 -5 63 0 67 11 9 27
-151 53 -252 40 -59 -7 -83 -3 -80 13 8 38 -155 43 -192 7 -40 -41 -46 -39
-63 14 l-15 45 -9 -45 c-5 -25 -19 -46 -32 -47 -51 -4 -186 5 -219 14 -19 6
-35 1 -35 -11 0 -11 30 -21 68 -21 37 0 95 -6 130 -12 l62 -13 0 -157 c0 -169
-13 -187 -102 -133 -35 22 -46 19 -77 -19 -20 -24 -42 -39 -49 -32 -6 7 -12 2
-12 -12 0 -13 -9 -19 -21 -12 -11 7 -53 -6 -92 -29 -40 -24 -76 -38 -82 -33
-5 5 -28 -8 -51 -29 -32 -30 -45 -33 -57 -14 -13 20 -16 20 -17 0 0 -14 -11
-25 -25 -25 -14 0 -37 -18 -51 -41 -61 -98 -79 100 -22 243 11 29 17 108 12
175 -5 80 0 123 14 124 12 0 6 9 -13 21 -65 38 -35 55 80 47 83 -6 101 -3 65
9 -27 10 -73 19 -101 20 -28 1 -69 16 -90 33 -40 32 40 31 296 -2 58 -8 75 -3
75 21 0 16 -7 28 -15 26 -32 -8 -280 29 -370 55 -52 15 -95 23 -95 17 0 -5
-22 5 -48 23 -27 17 -61 30 -75 28 -58 -8 -77 3 -77 42 0 22 11 39 25 38 106
-14 238 3 228 30 -7 19 -1 25 18 18 16 -6 29 -2 29 10 0 12 23 44 50 71 52 52
68 132 26 132 -19 0 -19 5 0 24 33 33 30 86 -6 116 -16 13 -24 35 -17 47 8 13
7 17 -2 9 -18 -16 -71 28 -58 49 5 8 -5 15 -23 15 -18 0 -27 9 -20 20 7 12 21
15 31 9 11 -6 19 -2 19 10 0 36 -451 28 -487 -9z m341 -104 c84 -32 108 -198
41 -276 -107 -124 -400 -17 -400 147 0 151 155 207 359 129z m-533 -191 c8
-118 22 -169 57 -216 54 -74 67 -59 -133 -159 -279 -139 -491 -372 -673 -736
-115 -230 -111 -237 104 -161 421 149 824 472 824 661 0 57 69 242 93 250 9 3
38 -31 63 -75 43 -75 50 -80 115 -68 112 22 144 -241 87 -723 -24 -198 -12
-328 28 -328 43 0 260 154 448 319 156 136 196 161 255 161 128 0 96 -65 -156
-314 -466 -462 -687 -435 -872 106 -37 109 -71 202 -75 207 -4 5 -54 -38 -112
-95 -63 -62 -123 -104 -150 -104 -30 0 -44 -12 -44 -38 0 -44 -33 -61 -101
-50 -39 6 -67 -14 -139 -102 -58 -70 -106 -109 -133 -109 -33 -1 -52 -23 -78
-91 -41 -107 -20 -105 -190 -19 -307 154 -452 424 -409 764 7 58 8 105 1 105
-41 0 -367 -148 -405 -184 -30 -28 -69 -43 -105 -40 -31 2 -114 -23 -184 -56
-168 -79 -246 -79 -286 -1 -71 136 48 205 689 401 274 83 336 121 617 377 237
214 355 291 643 416 205 89 208 88 221 -98z m261 -238 c42 -12 81 -35 87 -50
8 -22 2 -23 -29 -7 -28 15 -52 15 -79 1 -55 -30 -87 -26 -74 9 7 17 2 30 -9
30 -11 0 -15 9 -8 20 15 25 19 25 112 -3z m-432 -357 c-7 -11 -6 -30 1 -42 10
-16 19 -15 30 3 12 20 23 18 49 -8 31 -31 30 -33 -7 -33 -78 0 -103 -22 -103
-92 0 -51 -7 -64 -30 -55 -19 7 -30 -1 -30 -21 0 -19 -17 -32 -40 -32 -26 0
-44 -18 -52 -52 -10 -39 -23 -49 -53 -41 -27 7 -42 -1 -50 -28 -5 -22 -17 -39
-26 -39 -32 0 -79 25 -79 42 0 9 14 11 32 5 20 -8 29 -3 25 17 -8 32 55 122
168 241 41 43 75 85 75 94 0 8 20 25 45 37 58 28 60 28 45 4z"/>
<path d="M4685 4067 c-14 -6 -25 -21 -25 -34 0 -13 -25 -50 -55 -83 -30 -32
-53 -66 -50 -75 3 -8 -5 -15 -16 -15 -12 0 -16 -9 -9 -20 7 -12 20 -16 28 -11
9 5 12 -12 7 -40 -5 -27 -22 -49 -37 -49 -16 0 -28 -18 -28 -39 0 -29 9 -36
35 -27 19 7 29 6 21 -3 -7 -8 -5 -36 4 -62 13 -33 10 -64 -10 -102 -19 -36
-22 -65 -9 -89 12 -23 11 -55 -2 -91 -18 -46 -15 -60 14 -81 19 -14 26 -26 15
-26 -23 0 -22 -73 1 -125 18 -40 70 -47 74 -10 10 86 5 150 -13 139 -11 -6 -9
2 4 18 22 28 29 60 54 288 13 111 34 551 27 548 -3 0 -16 -6 -30 -11z"/>
<path d="M4711 2925 c96 -87 152 -111 184 -79 36 36 -32 85 -96 68 -21 -5 -48
3 -61 18 -12 15 -32 28 -44 28 -12 0 -4 -16 17 -35z"/>
<path d="M6656 4635 c-9 -162 -6 -192 14 -171 18 18 28 336 11 336 -9 0 -21
-74 -25 -165z"/>
<path d="M7480 4660 c0 -80 9 -140 20 -140 11 0 20 -17 20 -38 0 -22 18 -42
44 -49 59 -15 69 -1 30 43 -31 33 -29 36 27 40 63 5 74 -12 34 -54 -20 -21 -9
-23 65 -10 197 35 230 27 229 -57 -1 -41 -3 -189 -5 -328 l-4 -252 -75 13
c-41 8 -120 18 -175 24 -146 14 -62 -32 110 -61 l130 -21 0 -74 c0 -131 34
-45 42 107 11 186 30 668 29 746 0 74 29 110 80 97 34 -9 39 0 39 72 0 99 -49
114 -67 21 -7 -36 -21 -56 -34 -49 -22 14 -132 -88 -124 -115 3 -8 -8 -15 -23
-15 -15 0 -33 -14 -40 -31 -9 -24 -20 -26 -50 -10 -51 27 -81 27 -42 0 25 -17
23 -20 -10 -14 -26 4 -38 20 -36 46 3 21 0 28 -6 14 -19 -42 -45 -28 -33 18 8
30 4 39 -13 28 -13 -8 -39 -2 -57 12 -28 23 -31 22 -20 -7 7 -19 4 -41 -8 -48
-14 -8 -19 28 -14 110 6 106 2 122 -28 122 -30 0 -35 -20 -35 -140z"/>
<path d="M2967 4717 c-23 -26 -26 -37 -8 -37 20 0 20 -7 -2 -34 -16 -20 -18
-28 -3 -19 13 8 42 39 64 70 47 66 5 82 -51 20z"/>
<path d="M7770 4672 c37 -30 65 -40 73 -28 7 12 23 15 35 7 12 -7 22 -5 22 5
0 16 -129 64 -172 64 -10 0 9 -22 42 -48z"/>
<path d="M3513 4627 c-18 -19 -17 -182 2 -194 8 -5 15 39 15 99 0 59 -1 108
-2 108 -1 0 -7 -6 -15 -13z"/>
<path d="M3025 4407 c-14 -6 -25 -24 -25 -40 0 -17 10 -23 23 -15 16 10 20 4
11 -19 -7 -18 -4 -33 7 -33 10 0 19 27 19 60 0 33 -2 59 -5 58 -3 0 -16 -6
-30 -11z"/>
<path d="M6741 3971 c-22 -26 -20 -31 14 -31 22 0 68 -6 103 -12 47 -10 62 -6
62 16 0 21 -17 27 -62 20 -36 -5 -69 1 -77 14 -11 18 -21 16 -40 -7z"/>
<path d="M7300 3800 c-31 -19 174 -49 232 -34 21 5 5 10 -36 12 -40 1 -95 10
-121 20 -27 10 -60 11 -75 2z"/>
<path d="M8012 3783 c-6 -10 72 -30 174 -44 228 -34 219 -34 228 -7 13 38
-380 87 -402 51z"/>
<path d="M7630 3740 c7 -11 59 -19 116 -18 l104 3 -80 16 c-110 23 -155 23
-140 -1z"/>
<path d="M7919 3178 c-1 -246 -24 -689 -36 -699 -24 -20 -166 -63 -176 -53 -6
6 -28 -7 -50 -29 -22 -22 -53 -35 -69 -29 -38 15 -88 -7 -88 -38 0 -19 -22
-21 -91 -8 -84 16 -96 13 -140 -35 -27 -29 -49 -43 -49 -30 0 13 -10 23 -21
23 -12 0 -16 -9 -9 -20 7 -11 4 -20 -6 -20 -21 0 -67 49 -59 62 3 4 -11 -8
-31 -27 -19 -19 -53 -35 -75 -35 -21 0 -39 -7 -39 -17 0 -23 -65 -22 -95 2
-17 13 -25 13 -25 -3 0 -12 -13 -22 -30 -22 -16 0 -30 14 -30 32 0 21 -11 28
-31 20 -20 -7 -26 -4 -17 12 10 15 4 19 -19 10 -18 -7 -33 -4 -33 6 0 11 -22
25 -50 32 -27 7 -50 20 -50 29 0 10 -38 4 -85 -13 -47 -16 -100 -26 -119 -21
-18 5 -50 -3 -70 -16 -47 -33 -193 -51 -228 -29 -16 10 -19 18 -8 20 11 1 -11
11 -50 22 -97 28 -630 30 -743 4 -82 -20 -97 -18 -125 15 -17 20 -52 37 -77
37 -36 1 -39 4 -15 20 26 17 25 19 -5 20 -19 0 -35 -8 -35 -19 0 -10 -37 -14
-85 -8 -168 21 -286 19 -340 -7 -30 -15 -55 -20 -55 -13 0 8 -11 4 -24 -9 -60
-60 -76 -27 -65 127 13 173 -22 320 -43 183 -2 -13 -31 -136 -64 -274 -34
-137 -76 -331 -95 -430 -18 -99 -45 -229 -59 -290 -15 -60 -32 -135 -39 -165
-11 -52 -18 -55 -118 -55 -141 0 -139 -42 -21 495 189 854 165 771 226 758 76
-15 128 20 56 38 -86 21 -183 -7 -246 -71 -62 -63 -92 -75 -87 -35 11 82 -32
107 -52 29 -8 -31 -28 -47 -63 -50 -71 -6 -83 -22 -40 -53 32 -24 14 -52 -27
-43 -7 1 -29 -15 -49 -35 -45 -45 -220 -34 -301 20 -27 17 -49 23 -49 12 0
-11 -81 -24 -179 -30 -137 -7 -197 -20 -255 -55 -101 -60 -200 -69 -216 -20
-8 24 -24 33 -51 26 -21 -6 -39 -1 -39 12 0 12 -20 23 -45 23 -32 1 -37 6 -15
15 17 8 32 26 35 40 5 20 -5 19 -39 -5 -62 -43 -90 -39 -35 6 39 32 41 38 12
49 -19 7 -31 3 -28 -11 3 -12 -12 -26 -32 -31 -21 -4 -33 0 -27 9 6 9 -67 15
-161 12 -114 -3 -181 3 -202 20 -25 20 -28 20 -14 -2 12 -20 6 -25 -21 -17
-116 32 -223 34 -247 5 -14 -17 -37 -31 -50 -31 -33 0 -91 -129 -92 -206 0
-59 -3 -61 -28 -28 -19 26 -22 54 -11 94 13 46 11 55 -12 47 -15 -6 -28 -1
-28 11 0 12 -16 22 -35 22 -29 -1 -30 -4 -6 -19 26 -16 25 -21 -5 -32 -19 -7
-34 -27 -34 -43 0 -19 12 -26 31 -18 35 13 60 -34 38 -70 -10 -16 -20 -14 -33
10 -10 18 -28 27 -39 20 -14 -9 -13 -18 4 -28 16 -10 19 -29 9 -53 -15 -35
-17 -35 -25 -2 -4 20 -17 30 -29 23 -13 -8 -16 2 -8 27 9 27 3 44 -17 52 -17
6 -31 23 -31 36 0 20 5 20 24 1 30 -30 56 -31 56 -3 0 12 -9 16 -20 9 -11 -7
-20 1 -20 16 0 16 -13 40 -29 53 -21 18 -26 53 -19 136 7 71 3 116 -12 125
-12 7 -25 38 -28 67 -6 58 -61 111 -117 112 -45 1 -46 41 -1 41 21 0 27 7 15
18 -27 25 -449 -79 -449 -111 0 -14 -18 -38 -41 -53 -22 -16 -39 -37 -36 -46
8 -28 -24 -108 -42 -108 -22 0 -121 -153 -121 -188 0 -17 -16 -41 -35 -56 -19
-14 -48 -51 -63 -81 -16 -30 -36 -55 -45 -55 -10 0 -17 -12 -17 -26 0 -15 -28
-58 -61 -95 -62 -70 -71 -84 -156 -241 -26 -49 -69 -111 -95 -139 -69 -74 -84
-169 -30 -198 23 -12 42 -17 42 -9 0 7 23 -2 51 -21 33 -21 77 -30 125 -24
121 14 204 37 194 53 -6 9 12 37 40 63 27 26 49 58 50 71 0 38 179 83 250 64
33 -9 99 -19 148 -24 84 -7 157 -74 129 -118 -16 -27 33 -95 89 -123 66 -34
204 -57 204 -34 0 22 86 43 99 25 6 -8 38 -15 71 -16 33 -1 105 -4 160 -6 131
-5 190 3 190 24 0 34 56 75 67 49 6 -15 10 -11 11 10 1 19 12 35 23 35 12 0
15 11 7 25 -8 14 4 8 27 -12 59 -52 138 44 84 101 -9 9 1 50 21 91 20 41 29
75 19 75 -10 0 -12 15 -5 33 8 20 -2 44 -26 62 -37 29 -36 30 7 19 52 -12 65
58 20 103 -14 14 -16 24 -5 21 11 -2 36 3 56 11 64 28 83 -16 53 -123 -15 -53
-28 -105 -29 -116 -1 -11 -13 -46 -27 -78 -13 -33 -25 -100 -26 -150 -1 -51
-11 -98 -23 -105 -52 -33 37 -75 196 -91 55 -6 111 -20 125 -31 17 -14 25 -13
25 4 0 13 8 18 18 12 11 -6 23 4 28 24 9 33 10 33 12 0 2 -41 -56 -115 -92
-115 -65 0 2 -80 71 -85 22 -2 44 -18 49 -37 5 -19 37 -40 72 -47 136 -30 62
-61 -198 -81 -82 -6 -177 -18 -210 -25 -33 -7 -74 -13 -92 -14 -18 0 -54 -11
-80 -24 -131 -61 -230 -96 -255 -90 -16 3 -36 -6 -45 -20 -9 -15 -28 -27 -42
-27 -41 0 -214 -117 -215 -145 -1 -16 -19 -22 -51 -17 -51 10 -57 0 -54 -85 2
-27 -17 -64 -42 -85 -24 -20 -33 -37 -20 -37 13 -1 20 -19 16 -43 -7 -33 -3
-37 19 -19 17 14 32 16 39 4 14 -22 92 -7 92 18 0 9 36 13 80 9 44 -4 80 1 80
11 0 10 14 13 30 6 17 -6 42 -2 57 11 15 12 32 17 38 10 6 -6 37 5 67 25 42
28 52 30 38 7 -14 -24 -12 -26 11 -8 16 13 106 29 199 36 94 8 197 18 230 24
33 5 69 10 80 12 79 10 935 -50 1030 -72 28 -7 95 -16 150 -22 201 -21 251
-33 236 -57 -8 -13 0 -12 19 4 18 14 49 22 69 16 20 -6 72 -16 116 -22 44 -7
98 -18 120 -25 22 -8 49 -15 60 -16 110 -11 228 -40 266 -63 25 -16 53 -24 64
-17 10 6 147 -13 304 -42 157 -30 302 -54 321 -55 19 -1 35 -7 35 -14 0 -7 23
-23 50 -35 31 -14 50 -16 50 -3 0 21 119 9 250 -27 44 -11 121 -23 170 -25
139 -6 323 -29 345 -42 33 -20 740 -25 845 -6 55 10 141 24 190 31 50 7 113
22 140 34 51 21 69 25 116 31 15 2 22 10 17 18 -5 8 10 17 34 19 71 7 111 17
126 32 7 8 30 14 50 14 20 0 37 10 37 21 0 12 9 16 20 9 11 -7 20 2 20 19 0
17 13 31 28 31 16 0 33 11 39 25 11 28 18 -103 13 -260 -2 -63 6 -105 19 -105
12 0 22 45 24 105 1 58 5 137 8 175 3 39 6 96 7 128 1 32 8 53 15 46 7 -7 30
6 50 29 20 24 37 35 38 25 0 -10 13 4 28 32 15 27 24 56 19 63 -5 8 2 21 15
29 15 9 18 5 9 -14 -8 -15 0 -10 18 12 18 22 42 38 53 35 11 -4 14 3 7 15 -7
11 -5 20 4 20 10 0 19 24 22 53 2 29 12 63 22 75 37 45 41 152 5 154 -23 1
-25 4 -7 12 20 8 16 22 -16 56 -48 51 -165 38 -213 -23 -13 -16 -36 -27 -52
-23 -16 3 -54 -23 -84 -59 -30 -36 -64 -65 -76 -65 -13 0 -44 -20 -70 -45
l-48 -45 14 55 c17 71 -25 75 -51 5 -11 -30 -35 -50 -59 -50 -21 0 -46 -12
-55 -26 -22 -36 -154 -114 -193 -114 -18 0 -33 -9 -33 -19 0 -19 -186 -54
-235 -44 -14 3 -25 -5 -25 -17 0 -13 -27 -20 -63 -16 l-64 6 4 150 c3 83 9
206 15 274 6 70 2 141 -10 160 -25 44 -23 60 -40 -314 l-12 -290 -200 2 c-325
4 -783 34 -802 53 -17 17 -17 186 -1 400 13 170 11 195 -16 195 -51 0 -81 -89
-57 -169 24 -76 -34 -114 -111 -73 -19 11 -73 14 -119 8 -92 -12 -87 -20 -91
134 -4 107 -71 149 -75 46 -10 -294 -30 -400 -80 -427 -29 -15 -35 -14 -26 8
7 20 -3 25 -38 19 -37 -7 -51 1 -60 35 -10 36 -22 42 -68 33 -67 -13 -197 12
-193 38 2 10 -37 21 -86 24 -59 4 -86 -1 -78 -15 20 -31 -21 -25 -47 7 -18 22
-18 31 2 38 16 7 11 11 -11 12 -29 2 -33 8 -16 29 17 20 15 26 -6 26 -16 0
-25 -7 -19 -16 6 -9 1 -17 -11 -17 -11 0 -21 -10 -21 -21 0 -12 10 -15 23 -7
15 9 18 5 9 -10 -9 -13 -50 -21 -99 -17 l-83 5 -10 210 -10 210 -17 -120 c-9
-66 -20 -150 -24 -188 -11 -92 -11 -92 -150 -53 -105 29 -174 43 -244 50 -8 0
-16 66 -17 146 -2 117 -5 132 -18 78 -9 -37 -26 -77 -38 -89 -27 -27 -29 -61
-2 -44 11 7 20 4 20 -6 0 -29 -85 -45 -113 -22 -14 12 -44 15 -66 8 -23 -7
-41 -4 -41 8 0 12 -36 16 -92 9 -88 -11 -90 -10 -65 30 14 23 48 44 76 47 36
4 54 21 61 56 23 115 133 186 219 141 48 -26 270 16 316 59 20 18 48 29 63 24
18 -6 22 -1 12 16 -11 17 -8 21 7 12 13 -8 23 -26 23 -41 0 -17 15 -23 40 -17
29 8 40 1 40 -26 0 -26 6 -30 22 -14 17 17 47 12 115 -18 80 -35 116 -38 263
-26 239 21 311 19 470 -8 246 -43 710 -31 681 17 -11 18 89 2 119 -18 17 -12
139 -41 298 -72 22 -4 110 2 197 13 108 13 179 13 222 -1 147 -48 422 -28 400
29 -7 19 1 24 27 17 26 -6 46 7 65 42 32 59 69 69 52 14 -12 -37 117 -118 240
-152 69 -19 666 -21 683 -2 9 10 -1 12 -24 4 -38 -12 -38 -12 -3 15 36 28 126
14 183 -29 19 -14 59 -21 293 -49 117 -15 251 31 223 77 -7 11 9 14 41 6 l53
-14 0 187 c0 121 -9 195 -25 213 -16 17 -16 22 -2 14 31 -17 38 538 8 557 -12
7 -21 1 -21 -14 -1 -19 -6 -18 -20 4 -11 17 -20 22 -20 13 0 -10 -13 -7 -30 7
-16 14 -30 21 -30 15 0 -5 -38 -2 -85 6 -67 13 -101 8 -157 -21 -129 -65 -213
-81 -242 -44 -22 26 -21 30 5 20 83 -31 186 217 118 285 -25 25 -29 39 -13 46
13 5 8 11 -11 11 -19 1 -35 11 -35 22 0 12 -22 30 -50 40 -27 10 -50 29 -50
42 0 17 -8 16 -29 -1 -16 -14 -38 -19 -48 -13 -23 15 -68 -37 -48 -56 7 -8 0
-9 -18 -2 -18 7 -56 -9 -92 -39 -33 -28 -74 -51 -91 -51 -17 0 -35 -11 -40
-25 -18 -51 -44 11 -42 102 0 51 3 236 5 410 3 175 0 323 -6 329 -6 6 -11 -38
-12 -98z m-6579 -548 c40 -183 51 -210 88 -212 34 -2 35 -4 7 -12 -24 -6 -35
-29 -35 -72 1 -50 5 -57 21 -34 15 23 18 18 9 -20 -6 -27 20 -203 58 -389 81
-398 89 -363 -76 -354 -146 7 -137 -3 -162 185 l-12 92 -224 13 c-409 23 -374
32 -462 -117 l-76 -130 -168 0 c-191 0 -193 2 -100 107 38 42 136 177 219 300
83 122 223 327 312 453 88 127 185 268 216 314 l55 85 142 0 142 1 46 -210z
m2659 -126 c0 -30 -13 -76 -28 -104 -28 -50 -28 -50 -22 20 3 39 7 91 8 116 4
64 43 34 42 -32z m-1935 -24 c49 0 58 -8 55 -45 -6 -77 -1 -80 61 -28 151 127
441 72 511 -97 42 -101 36 -197 -32 -501 -34 -151 -56 -279 -50 -285 6 -6 11
0 11 13 0 13 11 21 25 18 14 -3 23 6 20 20 -3 14 4 26 15 28 11 1 31 4 45 5
14 2 50 -17 82 -42 31 -25 67 -46 81 -46 13 0 42 -14 63 -31 38 -30 37 -30 -6
-10 -72 36 -36 -24 40 -65 231 -123 459 -64 512 132 22 83 23 83 -79 25 -415
-238 -742 354 -393 712 179 185 595 160 595 -36 0 -15 9 -27 20 -27 11 0 20
22 20 48 0 98 17 112 134 112 l110 0 -14 -55 c-7 -30 -49 -221 -93 -425 -142
-659 -245 -778 -654 -755 -294 16 -406 88 -313 199 28 32 50 71 50 86 0 36
-34 56 -50 30 -7 -11 -26 -20 -42 -20 -17 0 -54 -28 -83 -63 l-53 -62 -21 86
c-22 92 -28 95 -188 103 -112 6 -113 10 -53 247 103 407 87 489 -97 489 -182
0 -214 -63 -344 -675 -9 -41 -21 -45 -139 -45 -153 0 -148 -16 -81 265 26 113
73 321 103 462 l55 257 59 -12 c32 -7 86 -12 118 -12z m6277 -51 c34 -41 33
-144 -3 -178 -116 -111 -260 31 -167 165 37 52 131 59 170 13z m-3289 -147
c203 -92 267 -334 158 -596 -177 -425 -792 -333 -789 118 2 374 324 617 631
478z m2727 25 c55 -11 62 -19 52 -60 -6 -26 -17 -71 -24 -99 -12 -51 -10 -53
71 -45 l84 8 -13 -80 c-18 -109 -20 -111 -108 -111 -86 0 -80 12 -123 -238
-27 -160 5 -237 76 -179 35 29 39 24 55 -77 14 -80 12 -85 -42 -99 -253 -63
-339 69 -261 403 l48 200 -54 6 c-84 10 -43 184 43 184 51 0 57 7 57 68 0 130
16 144 139 119z m-6116 -42 c12 -58 8 -125 -8 -125 -10 0 -13 -25 -6 -56 9
-41 2 -66 -26 -91 -49 -45 -77 50 -29 98 16 16 27 49 25 74 -7 92 29 174 44
100z m4411 -33 c50 -40 -122 -265 -409 -538 -115 -109 -111 -114 97 -114 l182
0 -13 -75 c-25 -142 -26 -144 -97 -123 -35 10 -177 18 -316 18 -138 0 -257 5
-263 12 -36 36 57 169 270 387 276 282 275 279 97 266 -164 -12 -255 5 -226
41 11 13 26 54 34 91 l14 66 313 -14 c172 -8 315 -15 317 -17z m529 -33 c311
-86 304 -658 -9 -800 -367 -167 -653 186 -463 571 95 193 280 283 472 229z
m663 -104 c53 47 169 89 183 66 6 -9 3 -58 -6 -108 -10 -51 -13 -96 -7 -102 5
-5 -21 -9 -59 -7 -147 5 -194 -60 -245 -334 -56 -301 -41 -273 -148 -266 -70
4 -93 14 -90 36 2 17 36 179 75 360 39 182 70 350 71 374 0 77 168 76 176 -1
l7 -57 43 39z m1034 -4 c0 -5 -21 -97 -47 -205 -26 -108 -64 -284 -83 -392
l-35 -196 -83 6 c-100 7 -100 -4 -14 393 34 159 62 314 62 345 0 56 3 58 100
58 55 0 100 -4 100 -9z m562 -52 c37 -20 118 -131 118 -162 0 -12 -132 -97
-151 -97 -5 0 -9 13 -9 30 0 16 -22 44 -50 62 -172 113 -360 -222 -209 -373
57 -57 147 -51 198 15 l43 54 63 -64 63 -63 -46 -49 c-209 -222 -542 -93 -542
210 0 345 271 571 522 437z m-14 -360 c-52 -52 -167 -73 -190 -36 -30 47 -20
58 52 54 39 -3 70 -13 70 -22 0 -10 20 -3 44 14 62 43 73 39 24 -10z m-737
-641 c8 -12 5 -28 -6 -35 -11 -7 -35 -44 -55 -83 -405 -793 -1083 -908 -3080
-520 -165 32 -381 73 -480 90 -99 18 -220 41 -270 51 -1001 209 -2039 206
-2571 -8 -209 -84 -212 -67 -14 77 464 337 1068 471 1766 391 115 -13 245 -28
289 -33 86 -9 602 -112 800 -159 66 -16 273 -65 460 -110 1181 -284 1771 -337
2280 -207 299 76 713 340 801 510 32 61 58 73 80 36z m-2568 -148 c70 -5 134
-9 144 -9 9 -1 13 -53 10 -116 -8 -129 -63 -166 -133 -91 -19 21 -26 26 -17
12 21 -31 -39 -36 -111 -8 -39 15 -46 31 -44 110 1 71 -5 91 -25 83 -15 -5
-27 -1 -27 10 0 10 10 19 21 19 12 0 15 11 6 25 -11 19 -7 19 17 -1 17 -14 89
-29 159 -34z"/>
<path d="M1080 2546 c0 -11 -67 -122 -150 -247 -82 -124 -147 -228 -145 -230
3 -2 98 -9 212 -16 l207 -12 -14 55 c-8 30 -30 141 -48 248 -28 164 -62 274
-62 202z"/>
<path d="M3224 2149 c-237 -167 -40 -512 217 -379 119 62 163 313 68 383 -51
37 -230 34 -285 -4z m177 -140 c23 -64 -41 -173 -67 -114 -11 25 -28 45 -37
45 -9 0 -7 23 3 51 18 46 16 48 -19 30 -57 -31 -75 -25 -30 8 51 39 132 28
150 -20z"/>
<path d="M4742 2067 c-149 -104 -128 -409 31 -439 181 -34 327 169 264 367
-33 106 -192 145 -295 72z m142 -154 c5 -26 0 -68 -11 -95 l-20 -48 -8 45 c-8
48 -37 60 -50 21 -4 -14 -18 -16 -34 -7 -21 13 -19 20 7 35 18 10 28 27 21 37
-6 10 3 13 20 7 20 -8 31 -1 31 20 0 49 34 38 44 -15z"/>
<path d="M6375 1980 c-170 -134 -129 -421 60 -419 124 1 210 111 213 276 3
153 -155 236 -273 143z"/>
<path d="M1248 3191 c-18 -37 -15 -49 13 -67 31 -20 34 -15 25 42 -12 80 -12
80 -38 25z"/>
<path d="M4153 3171 c-11 -28 36 -95 54 -77 7 7 13 32 13 56 0 45 -51 61 -67
21z"/>
<path d="M670 2760 c-7 -11 -6 -20 1 -20 7 0 -8 -17 -34 -38 -48 -40 -45 -71
6 -52 32 12 83 130 56 130 -9 0 -22 -9 -29 -20z"/>
<path d="M161 2011 c-14 -16 -18 -40 -10 -53 10 -16 20 -14 33 10 10 18 25 29
34 23 8 -5 15 4 15 20 0 37 -41 37 -72 0z"/>
<path d="M3881 356 c0 -29 -8 -58 -17 -64 -26 -16 -18 -277 9 -286 16 -6 23
38 24 143 0 83 4 157 9 166 5 8 2 33 -7 55 -14 35 -16 34 -18 -14z"/>
<path d="M4530 218 c-32 -86 -24 -218 13 -218 34 0 37 12 29 112 -10 117 -24
153 -42 106z"/>
<path d="M5275 68 c-29 -29 -14 -68 25 -68 23 0 40 13 40 31 0 17 -8 26 -18
20 -10 -6 -22 -2 -26 10 -4 12 -13 15 -21 7z"/>
</g>
</svg>
